<svg width="32" height="32" viewBox="0 0 32 32" fill="none" xmlns="http://www.w3.org/2000/svg">
<g clip-path="url(#clip0_31_450)">
<rect width="32" height="32" fill="#161616"/>
<path d="M1.18852 14.3806L1.29962 14.4917L1.25249 14.5389H1.12456L1 14.4278L1.06396 14.3806H1.18852ZM1.99985 22.6689H2.11094V22.7161C1.92242 22.9349 1.77092 23.046 1.65646 23.046L1.5925 22.982V22.9349L1.99985 22.6689ZM4.51798 8.22335H5.28553C6.06656 8.31761 6.45707 8.46237 6.45707 8.66099C6.77015 8.79565 6.92501 8.97407 6.92501 9.1929L6.75332 9.41172V10.8492L6.98898 12.6166H7.16067L8.03595 12.5526L8.39617 12.6166V12.7277H8.03595L7.8003 12.6637L7.04957 12.8826L7.0967 12.9297V14.4917C7.29533 16.0976 7.39295 17.8582 7.39295 19.7771V21.0126C7.06977 22.1168 6.73649 22.6689 6.39311 22.6689C6.04973 22.9181 5.46396 23.0426 4.64254 23.0426C3.57873 23.0426 2.67651 22.7767 1.93925 22.2448L2.06381 19.087L2.34659 18.8682H2.64284C2.95593 19.2217 3.21178 19.4001 3.4104 19.4001H3.75378L3.94231 18.9793V18.9321L3.81775 18.3396V18.1814C3.82785 18.003 3.86824 17.9155 3.94231 17.9155L3.58209 13.3034V12.4584L3.11415 12.5526L3.58209 12.2396V12.0847L3.471 11.913V10.3644C3.471 10.2096 3.37337 10.048 3.17475 9.87966V9.7248C3.40367 9.55984 3.51813 9.27033 3.51813 8.86635C3.73695 8.60376 4.07023 8.38831 4.51798 8.22335ZM3.75378 7.79917V7.91027L3.471 7.9574H3.23535V7.8463L3.75378 7.79917ZM7.92822 9.7248L7.99219 9.78876V9.83589L7.92822 9.88303H7.80366V9.83253L7.92822 9.7248ZM8.16051 10.8492L8.27161 11.0041L7.86426 11.1152L7.8003 11.068V11.0041L8.16051 10.8492ZM8.80351 9.30062L8.86747 9.34775V9.41172L8.80351 9.45885H8.56786V9.34775L8.80351 9.30062Z" fill="#DDF160"/>
<path d="M5.87695 6.28424H5.94092L6.06548 6.4088V6.47277H6.00151L5.87695 6.34821V6.28424ZM6.11261 28.53V28.6074L6.00151 28.732H5.87695V28.6074L6.11261 28.53ZM6.2843 16.8348L6.34826 16.8988V16.9762L6.23717 17.1008L6.1732 17.0368V16.9728L6.2843 16.8348ZM6.45599 18.2588L6.51995 18.3228L6.58391 18.2588H6.64788L6.75897 18.3834L6.46272 18.6493H6.40886L6.2843 18.5248V18.4473L6.45599 18.2588ZM6.45599 20.9486L6.51995 21.0126V21.0766L6.40886 21.218L6.2843 21.0766L6.45599 20.9486ZM7.56693 4.59427H7.67802L7.78912 6.00146L7.72179 6.61079L7.78575 7.28409L7.84971 7.22013H7.96081L7.89684 7.55004V7.69143H7.96081L7.84971 8.56672L7.89684 9.03466L7.78575 9.84598L7.84971 10.1759L7.78575 10.8492L7.84971 11.4585C7.81941 11.7312 7.77565 11.8659 7.72515 11.8659L7.78912 12.1958V12.3978L7.72515 12.6637L7.84971 13.8218L7.78575 14.2897L7.84971 14.6803L7.72179 15.0842V15.6936L7.78575 16.4275L7.72179 16.5049V16.5689L7.89348 19.868C7.88338 20.5346 7.84635 20.8679 7.78238 20.8679L7.84635 20.9453V21.0092L7.78238 21.5411H8.01804C8.1325 21.5411 8.24696 21.2483 8.36142 20.6659C8.61054 20.3124 8.78223 19.7737 8.87649 19.0567C8.97075 18.6931 9.18284 18.2218 9.51612 17.6495C9.51612 17.1479 9.76524 15.9831 10.2668 14.1483C10.2668 13.4717 10.516 12.62 11.0176 11.5999L11.1287 11.0512H11.0647L10.8459 11.1151L10.7213 10.9906H10.5496C10.5496 11.1252 10.5126 11.1926 10.4385 11.1926L10.3746 11.1151V11.5999H10.2635V10.5832L10.6708 10.6472H11.2499C11.2499 10.4688 11.3239 10.3341 11.4687 10.2399H11.5932V10.4419L11.5293 10.6438H11.5932L13.2664 10.7213V10.6438L13.1418 10.1119L12.923 10.1759C12.5695 10.1759 12.3911 9.95034 12.3911 9.5026C12.1723 9.12892 11.9063 8.79227 11.5932 8.50276V8.36136H11.6404L12.5157 8.69128L12.6874 8.50276C12.8422 8.54315 12.9802 8.65425 13.0947 8.83267L13.3775 8.97406V8.16274L13.2664 8.02135L13.3775 6.88011L13.3303 6.81615H13.2664L13.3775 6.34821C13.2327 6.34821 13.1183 6.21355 13.0341 5.94086H12.9701V5.79947H13.2058L13.5492 5.67491L14.0811 5.73887H14.1922C14.1922 5.83313 14.2696 5.88026 14.4278 5.88026L14.475 5.94423V6.00819L14.3639 6.14958L14.475 6.29098L14.3033 6.41554H13.9128C13.9128 6.59396 13.7916 6.68149 13.5525 6.68149V7.02487C13.906 7.07873 14.0844 7.16626 14.0844 7.29082V7.35478H13.9128V7.43221C14.1013 7.43221 14.1955 7.47261 14.1955 7.55677V7.6342C13.9228 7.6342 13.7882 7.72173 13.7882 7.90016H13.6771V7.75876L13.5525 7.90016V8.16611L13.6771 9.44874L13.6131 9.5127L13.6771 9.57666C13.5626 9.57666 13.5054 9.84935 13.5054 10.388H13.5525L13.6165 10.4519L13.6805 10.7347L15.3536 10.8593L15.761 10.7347L16.6194 10.7987C17.0873 11.0276 17.4173 11.2532 17.6058 11.472C17.7842 11.472 18.205 11.7851 18.8716 12.4112C18.9557 12.4112 19.188 12.6368 19.5752 13.0845L20.7804 13.2259V13.3505L19.794 13.2865H19.6829V13.3505C19.996 13.943 20.1508 14.4177 20.1508 14.7745H20.2586L20.6659 14.8385V14.9799H20.1508L20.198 15.0438V15.1078C20.1037 15.67 19.7401 16.2558 19.1039 16.8584C18.9254 16.993 18.7706 17.1748 18.6359 17.4071L18.7605 17.5317L19.4472 17.4677H20.2586L20.9453 17.5317V17.6731L18.6326 17.737L18.5854 17.801H18.5215L18.4575 17.737H18.3464V17.801H18.4575L18.3464 18.003V18.1444C18.5753 18.1444 18.6898 18.1915 18.6898 18.2858V18.3497H18.3464L18.2353 18.4743C18.2353 18.5685 18.3296 18.6157 18.5181 18.6157V18.6796C18.5181 18.8143 18.4036 18.8816 18.1747 18.8816V18.9591L18.4575 19.023V19.087C18.4575 19.1812 18.3834 19.2284 18.2387 19.2284L18.1141 19.4943L18.1781 19.5583H18.242L18.1781 19.6357V19.7603L18.242 19.8377L18.1781 20.0262L18.242 20.2282L18.1781 20.3056C18.6157 20.4841 19.0601 20.5918 19.5078 20.6356C19.5078 20.7399 19.794 20.8275 20.3663 20.9015C20.7501 21.1405 20.9857 21.3459 21.0699 21.5109V21.5748C21.0699 21.6994 20.8578 21.7936 20.4303 21.8576L20.3663 21.9216L18.0064 21.6556L17.8818 21.9216V22.1875C18.0064 22.1875 18.1074 22.3693 18.1781 22.7363L18.1141 23.1907H18.067L18.003 23.1268H17.9391C17.9391 23.3052 17.8044 23.3927 17.5317 23.3927H17.0772C17.0772 23.6014 16.9628 23.8236 16.7339 24.066L16.4376 24.002C16.4376 24.0761 16.303 24.2108 16.0303 24.4094C16.0303 24.6282 15.9932 24.7393 15.9192 24.7393H15.8687V24.13C15.7845 24.13 15.6903 23.9314 15.5859 23.5375L15.697 23.1941H15.633C15.2795 23.1941 15.0136 23.0157 14.8352 22.6622C14.6466 22.6622 14.512 22.6218 14.4278 22.5376L14.3033 22.7396V23.1301H14.4278V23.2547L14.3639 23.3321V23.3961H14.5356V23.5375H14.4245V23.662L14.4716 23.7395V23.8034L14.4245 23.8674H14.2528L14.1888 23.8034H14.1248L14.1888 23.46L14.1248 22.4602H14.0137L13.7175 22.0697V21.9923H13.6064C13.6064 22.1269 13.5694 22.1942 13.4953 22.1942C13.4953 22.0596 13.2226 21.9485 12.684 21.8643L12.3406 21.9283V21.7869C13.0274 21.7229 13.3741 21.6354 13.3741 21.5209L13.7175 21.6623H14.1248L14.1888 21.1944V20.7096H13.6737L11.5326 20.2417C11.3778 20.5245 11.2027 20.9991 11.0176 21.6657L11.4249 21.7297H11.7077V21.8711H11.0681L10.957 21.9956V22.137L11.0209 22.201V22.2649L10.553 22.5477L10.617 22.6117L10.5059 22.8137L10.553 22.8776V23.019H10.4419V23.1436H10.5059L11.4754 23.2076V23.349H10.2702C10.2702 23.7024 9.97733 23.9482 9.39493 24.0828V24.1468C10.3342 24.6989 10.8896 25.0861 11.0681 25.3049V25.3688H11.0209L9.86287 24.6349L9.79891 24.6989H9.75178L9.56325 24.5575L9.45216 24.6989C9.13908 24.3353 8.83273 24.1502 8.52974 24.1502C8.52974 24.2747 8.39508 24.369 8.1224 24.433V24.3555L8.05843 24.0896L8.18299 23.9482V23.8842L7.83961 23.6822V23.7597L7.88674 24.6349L7.77565 25.6988L7.83961 25.9007L7.66792 26.1667L7.71505 26.5101L7.77902 27.9947L7.71505 28.3852L7.77902 29.072L7.66792 30.6206H7.55683V29.4625L7.60396 28.3212L7.49287 27.0386L7.55683 26.5707L7.49287 25.3049H7.60396V25.2274L7.66792 24.6349C7.66792 24.3623 7.61069 24.2276 7.49623 24.2276V24.1502L7.43227 23.1503C7.04849 23.0359 6.85323 22.9248 6.85323 22.8204L6.9172 22.7564C6.76234 22.7564 6.64788 22.6622 6.57382 22.4737L6.63778 22.4097H6.74887L7.43564 22.8776V22.6757H7.5602V22.817H7.60733V22.7531L7.5602 22.5511L7.60733 22.4737L7.49623 21.6758L7.5602 21.5984L6.8566 21.5344H6.51322V21.393H7.3885L7.67129 21.3291L7.5602 18.9826L7.67129 18.3733L7.60733 18.4372H7.49623C7.52653 17.8111 7.56356 17.498 7.60733 17.498L7.5602 17.296L7.60733 16.6867L7.5602 16.4207L7.60733 16.1548L7.5602 15.2795H7.60733L7.49623 14.4682L7.60733 13.1249L7.5602 12.9229H7.60733L7.5602 12.859V12.795L7.60733 11.371L7.5602 11.307V11.2431C7.63426 11.2431 7.67129 11.1757 7.67129 11.0411L7.60733 10.6337L7.67129 9.69449V8.35126L7.60733 8.41523H7.5602L7.43564 8.14928L7.4996 8.07185V7.94729H7.3885V7.7453C7.3885 7.65104 7.44573 7.6039 7.5602 7.6039L7.49623 4.85349L7.56693 4.59427ZM7.72179 21.8239V22.2144L7.84635 22.3558H7.89348L8.06517 21.8879V21.8239H7.72179ZM8.23686 21.6219L8.7048 21.8879L9.17274 21.7465V21.6825L8.7654 21.6186L8.42202 21.6825L8.23686 21.6219ZM9.51949 6.28424L9.63058 6.4088L9.56662 6.47277H9.51949L9.39493 6.34821L9.45889 6.28424H9.51949ZM9.86287 21.5411V21.6186L9.97396 21.7431H10.4419C10.4419 21.6421 10.25 21.5748 9.86287 21.5411ZM10.553 21.6219V21.6859L10.8493 21.7499L10.7247 21.6253H10.553V21.6219ZM10.6136 9.09862L10.7247 9.24002V9.30398L10.6136 9.17942V9.09862ZM12.2867 28.2034H12.4584L12.5224 28.5333L12.2867 28.2674V28.2034ZM12.8018 16.3063L12.3945 17.4475H12.7547L13.0375 17.5115V16.3063H12.8018ZM12.8658 16.1009V16.1649H12.9297C13.0745 15.9057 13.1486 15.5926 13.1486 15.2256V15.0236C13.1048 15.0236 13.0105 15.3838 12.8658 16.1009ZM13.0375 6.47277L13.1014 6.5502V6.61416H12.9297L13.0375 6.47277ZM15.2896 15.0236H15.054L14.3033 15.0876L13.7242 15.0236L13.7882 15.0876V15.165H13.7242L13.7882 15.229C13.704 15.8956 13.6266 16.2288 13.5525 16.2288H13.5054V15.9595H13.4448C13.4448 16.2322 13.3876 16.3669 13.2731 16.3669V16.5083H13.3842V16.5722L13.3371 16.6362V16.7136L13.4482 16.8382V16.9021L13.2765 17.1849H13.3876L13.6838 17.1075L13.731 17.1849V17.2489L13.4448 17.3061C13.4448 17.4845 13.6939 17.5721 14.1955 17.5721H14.6029L14.7746 17.7135H15.0574C15.3603 17.4004 15.5724 17.2455 15.697 17.2455L15.761 17.4475H15.8081C16.4342 16.717 16.8955 15.909 17.1984 15.0236H16.9628L15.4142 15.0876V14.963H15.9932V14.8216H15.697C15.4243 14.8183 15.2896 14.889 15.2896 15.0236ZM14.1316 11.9904L14.1955 12.0679V12.1318C14.1013 12.2261 13.9666 12.2732 13.7882 12.2732V12.3372H13.9128V12.4011L13.6165 12.9499L13.6805 13.0138L13.6165 13.0778H13.9128V13.1418L13.7242 13.4246H14.7106L14.7746 13.3471H14.8385L14.8857 13.4246L14.9496 13.1418H15.0607V13.3438H15.6398V13.4852H15.0607V13.6265L14.7779 13.5491H14.6668C13.9262 13.6434 13.5559 13.778 13.5559 13.9565V14.6298H13.6199V14.3638H13.731C13.731 14.5321 13.8084 14.687 13.9666 14.8317L15.6398 14.6298H15.936L16.2188 14.5658C16.2828 14.7442 16.34 14.8317 16.3905 14.8317H16.4544C17.185 14.8317 17.5486 14.4715 17.5486 13.7545L17.4375 13.4246H16.744V13.2832H17.3062C17.0469 12.9802 16.5857 12.6671 15.9293 12.3439H15.8687C15.7946 12.3439 15.7576 12.455 15.7576 12.6738H15.633C15.633 12.519 15.559 12.3877 15.4142 12.2833L15.3502 12.3473H15.2863L14.9429 12.0813H14.8318L14.6601 12.2059C14.6197 12.0712 14.4985 12.0039 14.2999 12.0039H14.1316V11.9904ZM14.4278 20.7433V20.9453L14.5389 21.1473V21.2112H14.4278V21.2752L14.6635 21.3392L14.8352 21.2752L14.7106 21.0732L15.054 21.0092C15.054 20.8746 14.8453 20.7871 14.4278 20.7433ZM14.9463 25.5742L15.0574 25.7762L15.0102 25.8401H14.9463L14.8352 25.6382L14.8823 25.5742H14.9463ZM15.118 16.2255H15.229L15.3536 16.3669L15.2896 16.4308H15.2257L15.1146 16.3063V16.2255H15.118ZM15.9293 19.0567V19.2587H16.2121C16.4612 19.4876 16.6564 19.6021 16.7911 19.6021H17.1984L17.3701 19.7266H17.8852C17.8751 19.5482 17.8179 19.4607 17.7135 19.4607V19.1173C17.8684 19.1173 17.9492 18.9624 17.9492 18.6493H17.7135L16.744 18.7268V18.6493C16.377 18.922 16.1077 19.0567 15.9293 19.0567ZM16.3366 15.7575H16.3837L16.5083 15.8989L16.4443 15.9629H16.3333V15.7575H16.3366ZM17.1345 18.3834V18.4473L17.3701 18.5248L17.8381 18.4473V18.3834H17.1345ZM17.4947 19.868V19.932C17.6731 19.932 17.801 19.9791 17.8852 20.0734V19.8714H17.7741V19.8074L17.4947 19.868ZM18.1815 9.64399L18.2454 9.70796V9.77192L18.0737 9.91331L18.0098 9.84935V9.77192L18.1815 9.64399ZM18.1175 13.1317V13.2091H18.5248V13.1317H18.1175ZM18.4642 19.73H18.6359V19.8714H18.4642V19.73ZM18.8682 18.2588H19.2116V18.3834H18.8682V18.2588ZM18.9928 19.8074H19.2756V19.932H18.9928V19.8074ZM19.8546 19.73H20.3697V19.8714H19.8546V19.73ZM21.245 15.7575L21.4166 15.9595L21.2921 16.1009L21.1204 15.8989L21.245 15.7575ZM21.2921 23.2917H21.356L21.1204 23.5577V23.4937L21.2921 23.2917ZM22.1674 24.029H22.4502L22.9821 24.0929L23.2009 24.029L23.2648 24.231C23.211 24.4599 23.1537 24.5744 23.0932 24.5744H23.0292C22.9551 24.5744 22.9215 24.507 22.9215 24.3724L22.8575 24.4363H22.7498C22.5007 24.2579 22.3054 24.1704 22.1707 24.1704V24.029H22.1674ZM22.7464 13.4111H22.8541V13.4751L22.6824 13.677H22.5747V13.6131L22.7464 13.4111Z" fill="#DDF160"/>
<path d="M16.8999 8.33107L17.0244 8.44216L16.9604 8.48929H16.8965V8.33107H16.8999ZM17.2432 8.27047L17.5395 8.33444H18.3979V8.44553H17.3038L17.1927 8.33444L17.2432 8.27047ZM17.6506 25.4496H17.7617C17.7617 25.5338 17.6674 25.591 17.4789 25.6213L17.6506 25.4496ZM17.7145 12.8018C17.8593 12.8556 17.9334 12.9061 17.9334 12.9566C17.9334 13.0307 17.8761 13.0677 17.7617 13.0677L17.59 13.0206V12.9095L17.7145 12.8018ZM17.8223 20.5581H17.9334L17.7145 20.7601V20.6659L17.8223 20.5581ZM18.1051 17.3835L18.2296 17.4946L18.0579 17.6057L17.994 17.5586V17.4946L18.1051 17.3835ZM18.2296 4.34515H18.5124V4.39228L18.4013 4.50338L18.2296 4.45625V4.34515ZM18.3373 5.3753H18.4484L19.0275 5.81294L18.8558 5.8769C18.4686 5.71194 18.2767 5.60085 18.2767 5.54699L18.3373 5.3753ZM18.509 8.27047H19.1958V8.38157H18.509V8.27047ZM18.6841 8.59702H18.8558V8.70811H18.6841V8.59702ZM18.9635 20.9789L19.0881 21.09L18.9635 21.2011L18.8524 21.09L18.9635 20.9789ZM18.9164 9.95708H19.0881L19.1992 10.0682L19.0881 10.1793L18.9164 10.0244V9.95708ZM19.4314 12.0376L19.4786 12.1015V12.1487L19.4314 12.2126H19.3709L19.3069 12.1487V12.1015L19.3709 12.0376H19.4314ZM19.4314 8.33107H20.5087V8.44216H19.4314V8.33107ZM20.401 23.6519L20.5727 23.9179V23.9819L19.9936 24.029L19.4314 23.9819V23.8708L20.401 23.6519ZM19.7142 19.7906L19.7782 19.8377V19.9017L19.5425 20.0565H19.4786V20.0094L19.7142 19.7906ZM22.0438 8.22334L21.9967 8.27047V8.33444H23.2019V8.44553H22.1078L21.825 8.38157L21.246 8.81921L21.3099 8.88317V8.9303L21.246 8.99427V9.0414L21.6533 9.10536L24.2321 9.0414H24.5148C27.1845 9.28042 28.632 9.73489 28.861 10.4015L29.44 11.3407H29.5477C29.6622 11.3407 29.7194 11.1959 29.7194 10.9031L29.7834 10.9502H30.0662C30.0662 10.8054 30.2951 10.7314 30.7529 10.7314L30.8001 10.7953L30.9718 10.6236L31.0357 10.6876V10.9064L30.4735 11.2801L30.5206 11.4518C30.5206 11.5259 30.3894 11.6706 30.1301 11.8894V12.0005L30.1773 12.0477V12.1116C29.9483 12.1857 29.8339 12.2564 29.8339 12.3305V12.4415L30.0056 13.0812V14.347L30.3018 15.7542C30.3018 17.5047 30.1874 18.6527 29.9584 19.1947C29.9584 19.4438 29.881 19.6122 29.7228 19.6963C29.5679 19.969 29.4299 20.3629 29.3154 20.8847C29.1471 20.8847 29.0192 21.0867 28.9249 21.494C28.154 22.4333 27.5817 23.0325 27.2047 23.2917C26.1408 23.6149 25.3969 23.7765 24.9693 23.7765L24.4542 23.7125C24.2994 23.827 23.8617 23.8842 23.1413 23.8842L21.3133 23.6654H20.7343C20.6299 23.625 20.5794 23.5139 20.5794 23.3355V23.0695L20.6871 22.477V21.7566L20.5794 21.319V21.2718L20.6265 20.989L20.4549 21.1001L20.4077 20.8342C20.5222 20.8342 20.5794 20.7096 20.5794 20.4605V19.4741H20.5155V19.693H20.4077L20.4549 19.0365H20.4077L20.236 19.1476H20.0643L20.1115 19.0836L20.5794 18.7099V18.646L20.6871 17.02L20.6232 16.8483L20.7343 16.7372L20.6232 15.3771L20.7949 14.2359L20.4515 13.8454H20.6232L20.6871 13.9093H20.7343L20.8588 13.7982L21.0305 13.8454V13.7982L21.1383 13.6871H21.2022L21.2493 13.7343L21.421 13.6871V13.5693H20.906C20.8319 13.5693 20.7949 13.5121 20.7949 13.3976L20.6838 11.27L20.7309 10.9401L20.6838 9.95371V9.31408L20.5761 9.14239C21.1484 8.70475 21.4884 8.48593 21.5927 8.48593L21.5288 8.4388V8.37483L21.4816 8.4388H21.3099V8.3277H21.5927L22.0438 8.22334ZM20.401 20.1205H20.5087V20.3864H20.401V20.1205ZM21.0743 7.39519L21.1989 7.56688V7.61401H21.1349L20.9632 7.45915L21.0272 7.39519H21.0743ZM21.7611 13.6164V13.7275H21.8688L21.9933 13.6164H21.7611ZM23.3736 7.39519C22.936 7.75877 22.6296 7.94392 22.4512 7.94392C22.8888 7.57698 23.1952 7.39519 23.3736 7.39519ZM23.8887 8.27047H24.1715C24.4542 8.27047 24.6024 8.3277 24.6259 8.44216V8.48929L23.892 8.3782V8.27047H23.8887ZM24.1075 6.91041H24.1715V6.97101L23.9998 7.12587H23.9358V7.0821L24.1075 6.91041ZM23.9964 11.5528L24.0604 12.1453L23.9358 13.8353C24.02 13.8353 24.0604 13.8925 24.0604 14.007C24.0604 14.6432 24.0974 15.0741 24.1715 15.3031L24.2354 15.2559L24.9087 15.4108V15.5219H24.8582C24.6596 15.5219 24.562 15.4848 24.562 15.4108L24.5148 15.4747H24.4509L24.2792 15.4108L24.1075 15.4747V16.35C24.1176 16.7776 24.1748 17.0705 24.2792 17.2253C24.1647 18.1208 24.1075 19.0129 24.1075 19.8983C24.1075 20.6187 24.1849 20.9756 24.3431 20.9756L24.562 20.9285C24.562 21.0025 24.6192 21.0395 24.7337 21.0395C25.5349 20.9251 25.9389 20.7433 25.9389 20.4908C26.3024 19.8242 26.4977 19.2755 26.5179 18.848L26.0634 18.9591H25.9995V18.8042L26.5145 18.7402V18.1477C26.5886 17.9289 26.7031 16.5857 26.8579 14.1147C26.8579 13.3438 26.6492 12.7816 26.2317 12.4247C26.2317 12.5291 26.1913 12.5796 26.1072 12.5796L25.8244 12.3136L25.8884 11.9837L24.902 11.4821H24.1041L24.057 11.5461H23.9964V11.5528ZM24.3431 18.9624H24.4509V19.5718H24.3431V18.9624ZM24.3431 19.6829H24.4509L24.5148 19.9017L24.4509 20.2754H24.3431V19.6829ZM24.6865 23.8102H25.7638V23.9213H24.6865V23.8102ZM24.9659 6.36168V6.42564L24.8582 6.53337H24.7337C24.7337 6.47277 24.8111 6.41554 24.9659 6.36168ZM28.2348 7.28409H28.2819C28.3459 7.28409 28.4435 7.45242 28.5782 7.7857H28.6893V7.83283L28.6253 7.89679V7.94392H29.0327C29.0327 8.05838 29.0899 8.11561 29.2044 8.11561V8.22671C28.9014 8.22671 28.7499 8.35127 28.7499 8.60039H28.861V8.71148C28.6825 8.71148 28.5479 8.76871 28.4536 8.88317H28.4065L28.4536 9.25685H28.2819V8.81921C28.0934 8.81921 27.9991 8.78218 27.9991 8.70811H27.8275C27.8275 8.89664 27.7702 8.9909 27.6558 8.9909L27.6086 8.81921H27.5447V9.03803C27.7736 9.05823 27.8881 9.11546 27.8881 9.20972H27.7635L27.6086 9.09863H27.5447V9.20972H27.4336L27.3696 8.9909H27.4336L27.3696 8.81921L27.3057 8.88317L26.9151 8.77208L26.7435 8.81921V8.66435L26.6795 8.71148H26.6155L26.5684 8.66435L26.5044 8.71148H26.4405L26.3933 8.66435H26.3294C26.3294 8.76871 26.2923 8.81921 26.2183 8.81921H26.1711L26.1072 8.77208L26.0601 8.81921H25.9355V8.70811L25.8884 8.77208H25.6527C25.6527 8.62732 25.5955 8.55326 25.481 8.55326L25.4171 8.60039L25.3699 8.55326V8.77208H25.2454V8.60039L24.9626 8.66435V8.60039C24.9626 8.52632 24.9054 8.48929 24.7909 8.48929V8.3782H25.0265L24.9626 8.33107V8.21997L25.2454 8.04828L25.3093 8.11225H25.3733V7.94056H25.481V8.11225L25.7167 7.94056L25.8278 8.05165L26.0634 7.7857H26.1106V8.00452H26.2351L26.2822 7.6746H26.4068C26.4068 7.81936 26.464 7.89343 26.5785 7.89343V8.04828C26.6526 8.04828 26.6896 7.99779 26.6896 7.89343L26.8613 7.82946L26.9252 7.89343C26.9252 7.63421 26.9623 7.50291 27.0363 7.50291H27.1003V7.89343H27.1474V7.6746H27.2114L27.2754 7.72174H27.3225C27.3225 7.61737 27.3629 7.56688 27.447 7.56688L27.5581 7.67797V7.94392H27.6692L27.7332 7.50628H27.7803C27.8645 7.50628 27.9049 7.60054 27.9049 7.78906H28.0766L28.2348 7.28409ZM25.9355 24.2478H26.0601L25.8244 24.4666H25.6527L25.9355 24.2478ZM26.1072 24.6854C26.0331 24.8504 25.9624 24.9447 25.8884 24.9682L25.8244 24.9043V24.746L26.1072 24.6854ZM26.1072 5.70521L25.9355 5.8769L25.8884 5.81294V5.76917L25.9355 5.70521H26.1072ZM25.8884 15.8047H26.0601C26.289 15.8249 26.4034 15.8787 26.4034 15.9595V16.0706C26.0601 16.0067 25.8884 15.936 25.8884 15.8518V15.8047ZM25.9355 14.3806H25.9995L26.1072 14.4917V15.0405H26.0601L25.9355 14.9294V14.3806ZM25.9355 15.2122H26.0601V15.367H25.9355V15.2122ZM26.2789 24.8571L26.4034 24.9682L26.1072 25.1871L25.9995 25.076L26.2789 24.8571ZM26.1711 5.988L26.2789 6.20682L26.2317 6.25395H26.1711L26.0601 6.14285V6.09572L26.1711 5.988ZM26.2351 14.1147H26.4068L26.5179 14.2258L26.4539 14.2729H26.3462L26.2351 14.1618V14.1147ZM26.5785 25.5136L26.6896 25.6247L26.5785 25.7358L26.4539 25.6247L26.5785 25.5136ZM26.6862 24.2478H26.7502V24.3118L26.6256 24.4229H26.5785V24.3589L26.6862 24.2478ZM26.7502 25.7796V25.8435L26.6256 25.9546L26.5785 25.8906V25.8435L26.6256 25.7796H26.7502ZM26.969 25.7796L27.033 25.8435L26.969 25.9984H26.8613V25.8873L26.969 25.7796ZM26.8579 26.1701H26.9219L27.033 26.2643L26.9219 26.3754L26.8579 26.3283V26.1701ZM27.2013 26.4831H27.2653V26.5942L27.1407 26.7053L27.033 26.5942L27.2013 26.4831ZM27.4841 27.3113L27.7669 27.3584C27.6928 27.5032 27.5851 27.5773 27.4369 27.5773L27.373 27.5301V27.419L27.4841 27.3113ZM27.7669 27.7489L27.8914 27.86V27.9072L27.7669 27.7961V27.7489ZM27.8275 26.9208H27.9352V27.0925H27.8275V26.9208ZM28.2348 4.71883H28.3459V5.15647H28.2348V5.04875L28.2819 5.00162L28.2348 4.93765V4.71883ZM28.2348 6.03513H28.3459V6.42564H28.2348V6.03513ZM28.2819 6.79932H28.4065V7.0821H28.2819V6.79932ZM28.6253 28.6714H28.861L28.9687 28.7825V28.8464L28.6859 28.9575L28.5142 28.7858L28.6253 28.6714ZM30.2985 19.9017L30.3456 20.1205L30.2985 20.1676H30.3456L30.6418 20.1205L30.7967 20.3393L30.7496 20.3864H30.6418L30.5173 20.2754C30.1739 20.3158 30.0022 20.41 30.0022 20.5581L30.2379 20.6053V20.6692C30.2379 20.7231 30.1032 20.7736 29.8305 20.8241L29.8945 20.8712V20.9352L29.7228 21.09L29.6588 21.0429L29.6117 21.09H29.4871L29.44 20.9352C29.6184 20.2787 29.8036 19.9488 30.0022 19.9488L30.2985 19.9017ZM30.4062 13.3505H30.5173V13.3976L30.689 15.2122H30.5812C30.5408 14.6601 30.4836 14.347 30.4096 14.2729L30.4735 14.0541L30.4062 13.3505ZM30.6418 16.8988H30.8607C30.8405 17.4105 30.7832 17.6663 30.689 17.6663H30.6418V16.8988ZM32.9883 16.0706L34.6446 16.1346H35.2068V16.2457H31.0324V16.1346H31.4397L32.9883 16.0706ZM31.3151 14.3335L31.4397 14.4446L31.3151 14.5557L31.204 14.4446L31.3151 14.3335ZM31.4397 22.9012C31.5845 22.9551 31.6585 23.0056 31.6585 23.0561V23.1672H31.6114C31.4027 23.1672 31.268 23.0931 31.204 22.9483L31.4397 22.9012ZM31.4868 11.2229L31.6114 11.334L31.4868 11.4451L31.3757 11.334L31.4868 11.2229ZM31.5474 18.1949L31.6585 18.306L31.5474 18.4171L31.4397 18.306L31.5474 18.1949ZM31.8942 9.14576C32.1231 9.18616 32.2376 9.24339 32.2376 9.31745V9.53627C32.2376 9.61033 32.1029 9.66083 31.8302 9.69113L31.7191 9.53627V9.31745L31.8942 9.14576ZM32.1736 15.1011L32.6415 15.2559V15.367H32.517L32.1736 15.1482V15.1011ZM32.9883 12.1453H33.0354L33.16 12.2564V12.3204L33.0354 12.4314H32.9883L32.8637 12.3204V12.2564L32.9883 12.1453ZM33.3317 21.3089L33.4428 21.42L33.3788 21.4839H33.2071V21.42L33.3317 21.3089ZM34.005 9.31745V9.36458C34.005 9.43864 33.7592 9.54637 33.2711 9.69449C33.5067 9.44201 33.7525 9.31745 34.005 9.31745ZM35.2068 20.447L35.2708 20.4942V20.6053H35.0991V20.5581L35.2068 20.447Z" fill="#DDF160"/>
</g>
<defs>
<clipPath id="clip0_31_450">
<rect width="32" height="32" fill="white"/>
</clipPath>
</defs>
</svg>
